<?xml version="1.0" standalone="no"?><!DOCTYPE svg PUBLIC "-//W3C//DTD SVG 1.1//EN" "http://www.w3.org/Graphics/SVG/1.1/DTD/svg11.dtd" ><svg xmlns="http://www.w3.org/2000/svg"><metadata>Generated by Glyphter</metadata><defs><font id="Glyphter" horiz-adv-x="0"><font-face units-per-em="1024" ascent="1024" descent="0" font-family="Glyphter" font-weight="normal" /><missing-glyph horiz-adv-x="0" /><glyph unicode="&#x0041;" d="M810.043,1000.836C801.438,1015.582,785.503,1024,766.394,1024C766.394,1024,531.782,1024,531.782,1024C503.775,1024,474.678,1005.723,462.586,980.515C462.586,980.515,213.77,463.753,213.77,463.753C205.646,446.898,206.147,429.019,214.981,414.839C223.879,400.532,239.627,392.199,258.299,391.801C258.299,391.801,442.431,389.483,442.431,389.483C442.431,389.483,309.136,56.289,309.136,56.289C305.857,47.977,298.963,30.559,311.245,12.657C316.613,4.805,325.824,0,335.306,0C335.306,0,337.456,0,337.456,0C355.44,0,366.278,13.639,371.479,20.216C371.479,20.216,802.191,561.061,802.191,561.061C820.571,584.099,812.988,604.775,810.21,610.79C807.328,616.554,795.757,635.437,766.412,635.437C766.412,635.437,629.357,635.437,629.357,635.437C629.357,635.437,808.705,951.441,808.705,951.441C818.106,968.109,818.628,986.154,810.043,1000.836C810.043,1000.836,810.043,1000.836,810.043,1000.836" class="icon-actions"/><glyph unicode="&#x0042;" d="M560.493,809.795C560.493,809.795,560.493,449.653,560.493,449.653C560.493,449.653,217.205,449.653,217.205,449.653C217.205,449.653,217.205,3,217.205,3C217.205,3,1024,3,1024,3C1024,3,1024,809.795,1024,809.795C1024,809.795,560.493,809.795,560.493,809.795C560.493,809.795,560.493,809.795,560.493,809.795M496.489,1021.337C496.489,1021.337,0,1021.337,0,1021.337C0,1021.337,0,524.849,0,524.849C0,524.849,496.489,524.849,496.489,524.849C496.489,524.849,496.489,1021.337,496.489,1021.337C496.489,1021.337,496.489,1021.337,496.489,1021.337M415.037,606.311C415.037,606.311,81.452,606.311,81.452,606.311C81.452,606.311,81.452,939.897,81.452,939.897C81.452,939.897,415.037,939.897,415.037,939.897C415.037,939.897,415.037,606.311,415.037,606.311C415.037,606.311,415.037,606.311,415.037,606.311M144.549,803.148C144.549,803.148,144.549,735.999,144.549,735.999C144.549,735.999,349.723,735.999,349.723,735.999C349.723,735.999,349.723,803.148,349.723,803.148C349.723,803.148,144.549,803.148,144.549,803.148M213.567,872.166C213.567,872.166,213.567,666.981,213.567,666.981C213.567,666.981,280.716,666.981,280.716,666.981C280.716,666.981,280.716,872.166,280.716,872.166C280.716,872.166,213.567,872.166,213.567,872.166" class="icon-addTile"/><glyph unicode="&#x0043;" d="M1005.571,650.331C1005.571,650.335,1005.568,650.338,1005.568,650.342C944.099,870.637,741.34,1024.492,512.498,1024.492C423.904,1024.492,336.465,1001.371,259.614,957.623C259.614,957.623,259.61,957.62,259.61,957.62C99.789,866.633,0.5,696.071,0.5,512.494C0.5,347.548,80.743,191.749,215.149,95.728C227.863,86.641,245.542,89.581,254.629,102.306C263.716,115.027,260.773,132.702,248.052,141.786C128.491,227.202,57.105,365.786,57.105,512.494C57.105,666.305,135.487,809.851,263.433,893.649C263.433,893.649,341.378,756.435,341.378,756.435C262.377,700.924,214.338,609.836,214.338,512.494C214.338,447.184,235.078,385.179,274.324,333.178C306.528,290.498,350.284,256.905,399.496,236.636C399.496,236.636,345.363,57.66,345.363,57.66C345.087,56.75,344.861,55.833,344.68,54.912C344.552,54.259,344.472,53.607,344.393,52.954C344.359,52.69,344.306,52.429,344.28,52.165C344.204,51.384,344.178,50.603,344.17,49.825C344.17,49.686,344.152,49.542,344.152,49.403C344.152,48.61,344.204,47.825,344.272,47.044C344.284,46.908,344.28,46.776,344.295,46.64C344.37,45.901,344.491,45.169,344.623,44.44C344.657,44.259,344.672,44.074,344.706,43.897C344.838,43.248,345.012,42.61,345.189,41.976C345.261,41.72,345.31,41.455,345.389,41.203C345.555,40.659,345.767,40.127,345.963,39.595C346.087,39.259,346.193,38.92,346.329,38.587C346.533,38.097,346.778,37.625,347.012,37.146C347.178,36.799,347.325,36.444,347.506,36.104C347.68,35.78,347.888,35.482,348.072,35.165C348.352,34.689,348.62,34.206,348.925,33.75C349.114,33.467,349.329,33.206,349.529,32.931C349.872,32.455,350.208,31.972,350.582,31.519C350.752,31.312,350.94,31.127,351.114,30.923C351.548,30.425,351.978,29.927,352.45,29.459C352.59,29.319,352.744,29.195,352.888,29.055C353.412,28.553,353.94,28.059,354.503,27.595C354.627,27.493,354.763,27.402,354.891,27.304C355.484,26.833,356.084,26.376,356.722,25.95C356.891,25.836,357.073,25.742,357.246,25.633C357.846,25.248,358.454,24.87,359.088,24.531C359.439,24.342,359.809,24.187,360.171,24.014C360.642,23.787,361.107,23.542,361.593,23.342C362.469,22.98,363.363,22.655,364.277,22.38C412.338,7.862,462.21,0.5,512.506,0.5C674.482,0.5,823.466,74.747,921.253,204.206C988.797,293.634,1024.5,400.239,1024.5,512.498C1024.496,558.963,1018.13,605.338,1005.571,650.331C1005.571,650.331,1005.571,650.331,1005.571,650.331M270.946,512.494C270.946,599.002,317.827,679.433,393.296,722.404C393.722,722.645,394.115,722.925,394.522,723.189C394.922,723.445,395.341,723.683,395.722,723.955C396.145,724.257,396.53,724.589,396.93,724.91C397.27,725.181,397.628,725.434,397.953,725.717C398.33,726.045,398.67,726.408,399.024,726.755C399.338,727.061,399.67,727.347,399.968,727.664C400.326,728.045,400.643,728.457,400.979,728.857C401.236,729.166,401.515,729.457,401.756,729.774C402.055,730.163,402.311,730.574,402.587,730.974C402.828,731.329,403.092,731.672,403.319,732.034C403.534,732.381,403.711,732.744,403.911,733.098C404.16,733.536,404.424,733.97,404.647,734.419C404.802,734.729,404.919,735.049,405.058,735.363C405.292,735.876,405.534,736.385,405.734,736.914C405.813,737.121,405.866,737.336,405.941,737.544C406.172,738.189,406.398,738.834,406.579,739.495C406.606,739.593,406.621,739.691,406.647,739.789C408.466,746.691,407.708,754.284,403.9,760.978C403.9,760.978,312.63,921.645,312.63,921.645C374.639,951.967,443.172,967.888,512.498,967.888C706.555,967.888,879.52,843.504,942.597,662.124C942.597,662.124,790.533,619.613,790.533,619.613C746.687,733.385,636.119,810.651,512.498,810.651C496.864,810.651,484.196,797.979,484.196,782.348C484.196,766.718,496.864,754.046,512.498,754.046C620.334,754.046,715.909,681.441,744.929,577.488C750.982,555.793,754.054,533.925,754.054,512.494C754.054,459.829,737.14,409.606,705.136,367.243C705.132,367.239,705.132,367.235,705.128,367.231C658.897,306.038,588.688,270.943,512.498,270.943C488.886,270.943,465.358,274.433,442.569,281.316C341.521,311.842,270.946,406.904,270.946,512.494C270.946,512.494,270.946,512.494,270.946,512.494M512.498,57.101C477.226,57.101,442.187,61.169,407.998,69.218C407.998,69.218,452.086,214.991,452.086,214.991C452.086,214.991,453.667,220.225,453.667,220.225C473.052,216.315,492.743,214.338,512.498,214.338C597.134,214.338,675.769,249.369,732.223,311.34C732.223,311.34,858.331,216.232,858.331,216.232C771.597,114.747,647.085,57.101,512.498,57.101C512.498,57.101,512.498,57.101,512.498,57.101M892.441,261.403C892.441,261.403,766.333,356.51,766.333,356.51C795.417,403.485,810.658,456.874,810.658,512.494C810.658,529.929,809.036,547.536,805.82,565.11C805.82,565.11,957.823,607.606,957.823,607.606C964.51,576.296,967.891,544.419,967.891,512.494C967.891,422.142,941.891,335.91,892.441,261.403C892.441,261.403,892.441,261.403,892.441,261.403" class="icon-bagel"/><glyph unicode="&#x0044;" d="M64,992C64,992,64,64,64,64C64,64,192,64,192,64C192,64,192,96,192,96C192,113.688,206.312,128,224,128C241.688,128,256,113.688,256,96C256,96,256,64,256,64C256,64,384,64,384,64C384,64,384,96,384,96C384,113.688,398.312,128,416,128C433.688,128,448,113.688,448,96C448,96,448,64,448,64C448,64,576,64,576,64C576,64,576,96,576,96C576,113.688,590.312,128,608,128C625.688,128,640,113.688,640,96C640,96,640,64,640,64C640,64,768,64,768,64C768,64,768,96,768,96C768,113.688,782.312,128,800,128C817.688,128,832,113.688,832,96C832,96,832,64,832,64C832,64,992,64,992,64C1009.688,64,1024,49.688,1024,32C1024,14.312,1009.688,0,992,0C992,0,32,0,32,0C14.312,0,0,14.312,0,32C0,32,0,992,0,992C0,1009.688,14.312,1024,32,1024C49.688,1024,64,1009.688,64,992C64,992,64,992,64,992M192,192C192,192,384,192,384,192C419.376,192,448,220.656,448,256C448,291.344,419.374,320,384,320C384,320,192,320,192,320C156.624,320,128,291.344,128,256C128,220.656,156.626,192,192,192C192,192,192,192,192,192M192,384C192,384,576,384,576,384C611.376,384,640,412.656,640,448C640,483.344,611.374,512,576,512C576,512,192,512,192,512C156.624,512,128,483.344,128,448C128,412.656,156.626,384,192,384C192,384,192,384,192,384M192,576C192,576,704,576,704,576C739.376,576,768,604.626,768,640C768,675.374,739.374,704,704,704C704,704,192,704,192,704C156.624,704,128,675.374,128,640C128,604.626,156.626,576,192,576C192,576,192,576,192,576M192,768C192,768,832,768,832,768C867.376,768,896,796.626,896,832C896,867.374,867.374,896,832,896C832,896,192,896,192,896C156.624,896,128,867.374,128,832C128,796.626,156.626,768,192,768C192,768,192,768,192,768" class="icon-bars_hor"/><glyph unicode="&#x0045;" d="M1024,32C1024,14.312,1009.688,0,992,0C992,0,32,0,32,0C14.312,0,0,14.312,0,32C0,32,0,992,0,992C0,1009.688,14.312,1024,32,1024C49.688,1024,64,1009.688,64,992C64,992,64,832,64,832C64,832,96,832,96,832C113.688,832,128,817.688,128,800C128,782.312,113.688,768,96,768C96,768,64,768,64,768C64,768,64,640,64,640C64,640,96,640,96,640C113.688,640,128,625.688,128,608C128,590.312,113.688,576,96,576C96,576,64,576,64,576C64,576,64,448,64,448C64,448,96,448,96,448C113.688,448,128,433.688,128,416C128,398.312,113.688,384,96,384C96,384,64,384,64,384C64,384,64,256,64,256C64,256,96,256,96,256C113.688,256,128,241.688,128,224C128,206.312,113.688,192,96,192C96,192,64,192,64,192C64,192,64,64,64,64C64,64,992,64,992,64C1009.688,64,1024,49.688,1024,32C1024,32,1024,32,1024,32M256,128C291.344,128,320,156.624,320,192C320,192,320,384,320,384C320,419.376,291.344,448,256,448C220.656,448,192,419.376,192,384C192,384,192,192,192,192C192,156.624,220.656,128,256,128C256,128,256,128,256,128M448,128C483.344,128,512,156.624,512,192C512,192,512,576,512,576C512,611.376,483.344,640,448,640C412.656,640,384,611.374,384,576C384,576,384,192,384,192C384,156.624,412.656,128,448,128C448,128,448,128,448,128M640,128C675.376,128,704,156.624,704,192C704,192,704,704,704,704C704,739.376,675.376,768,640,768C604.624,768,576,739.374,576,704C576,704,576,192,576,192C576,156.624,604.624,128,640,128C640,128,640,128,640,128M832,128C867.376,128,896,156.624,896,192C896,192,896,832,896,832C896,867.376,867.376,896,832,896C796.624,896,768,867.374,768,832C768,832,768,192,768,192C768,156.624,796.624,128,832,128C832,128,832,128,832,128" class="icon-bars_ver"/><glyph unicode="&#x0046;" d="M1019.608,96.536C1019.608,96.536,543.057,962.623,543.057,962.623C536.827,973.946,524.923,980.981,512.001,980.981C499.076,980.981,487.177,973.946,480.945,962.623C480.945,962.623,4.391,96.536,4.391,96.536C-1.652,85.556,-1.445,72.201,4.933,61.408C11.31,50.618,22.911,44,35.444,44C35.444,44,988.554,44,988.554,44C1001.091,44,1012.692,50.618,1019.069,61.408C1025.446,72.201,1025.65,85.556,1019.608,96.536C1019.608,96.536,1019.608,96.536,1019.608,96.536M95.407,114.894C95.407,114.894,512.001,872.01,512.001,872.01C512.001,872.01,928.595,114.894,928.595,114.894C928.595,114.894,95.407,114.894,95.407,114.894C95.407,114.894,95.407,114.894,95.407,114.894M467.58,618.752C467.58,618.752,467.58,362.548,467.58,362.548C467.58,338.02,487.47,318.128,512.001,318.128C536.529,318.128,556.421,338.02,556.421,362.548C556.421,362.548,556.421,618.752,556.421,618.752C556.421,643.283,536.529,663.173,512.001,663.173C487.47,663.173,467.58,643.281,467.58,618.752C467.58,618.752,467.58,618.752,467.58,618.752M512.001,272.012C486.205,272.012,465.213,251.031,465.213,225.224C465.213,199.425,486.205,178.435,512.001,178.435C537.797,178.435,558.789,199.425,558.789,225.224C558.789,251.028,537.794,272.012,512.001,272.012C512.001,272.012,512.001,272.012,512.001,272.012" class="icon-caution7"/><glyph unicode="&#x0047;" d="M520.147,889.379C312.077,889.379,143.406,720.708,143.406,512.637C143.406,304.577,312.077,135.896,520.147,135.896C728.218,135.896,896.879,304.577,896.879,512.637C896.879,517.15,896.697,521.633,896.546,526.106C896.546,526.106,520.147,526.106,520.147,526.106C520.147,526.106,520.147,889.379,520.147,889.379C520.147,889.379,520.147,889.379,520.147,889.379M78.519,512.637C78.519,630.605,124.457,741.511,207.87,824.924C362.578,979.622,604.397,995.217,776.805,871.95C776.805,871.95,745.142,871.95,745.142,871.95C728.45,871.95,714.92,858.421,714.92,841.728C714.92,825.035,728.45,811.506,745.142,811.506C745.142,811.506,857.378,811.506,857.378,811.506C865.387,811.506,873.084,814.689,878.745,820.361C884.417,826.033,887.6,833.709,887.6,841.728C887.6,841.728,887.6,957.58,887.6,957.58C887.6,974.273,874.061,987.803,857.378,987.803C840.675,987.803,827.156,974.263,827.156,957.58C827.156,957.58,827.156,922.502,827.156,922.502C626.681,1072.848,340.244,1057.022,158.003,874.781C61.272,778.07,8,649.444,8,512.637C8,375.831,61.272,247.215,158.003,150.503C234.133,74.363,330.331,24.869,436.2,7.371C436.2,7.371,447.704,76.942,447.704,76.942C356.453,92.033,273.523,134.707,207.87,200.36C124.457,283.784,78.519,394.68,78.519,512.637C78.519,512.637,78.519,512.637,78.519,512.637M643.495,88.497C596.872,74.978,548.536,69.306,499.878,71.482C499.878,71.482,496.675,1.044,496.675,1.044C504.553,0.691,512.41,0.5,520.258,0.5C568.664,0.5,616.617,7.3,663.109,20.779C678.512,25.232,693.946,30.521,708.946,36.444C708.946,36.444,683.015,102.037,683.015,102.037C670.07,96.899,656.782,92.336,643.495,88.497C643.495,88.497,643.495,88.497,643.495,88.497M774.065,151.209C754.118,137.145,732.842,124.683,710.901,114.176C710.901,114.176,741.334,50.568,741.334,50.568C766.822,62.768,791.493,77.234,814.674,93.575C838.64,110.449,861.398,129.6,882.291,150.493C882.291,150.493,832.424,200.35,832.424,200.35C814.382,182.307,794.747,165.766,774.065,151.209C774.065,151.209,774.065,151.209,774.065,151.209M895.136,279.12C887.762,267.313,879.753,255.748,871.311,244.727C866.707,238.702,861.921,232.779,856.985,226.956C856.985,226.956,910.72,181.29,910.72,181.29C916.442,188.04,922.034,194.95,927.302,201.851C937.104,214.655,946.403,228.084,954.956,241.805C964.637,257.319,973.583,273.528,981.531,290C981.531,290,918.024,320.655,918.024,320.655C911.164,306.471,903.467,292.498,895.136,279.12C895.136,279.12,895.136,279.12,895.136,279.12M948.216,403.746C943.169,383.81,936.671,364.085,928.904,345.115C928.904,345.115,994.174,318.419,994.174,318.419C1003.181,340.461,1010.706,363.329,1016.569,386.439C1016.569,386.439,948.216,403.746,948.216,403.746C948.216,403.746,948.216,403.746,948.216,403.746" class="icon-changeGraph"/><glyph unicode="&#x0048;" d="M9.552,9.051C15.586,3.02,23.492,0.002,31.399,0.002C39.306,0.002,47.213,3.02,53.246,9.051C53.246,9.051,512.499,468.307,512.499,468.307C512.499,468.307,971.755,9.049,971.755,9.049C977.786,3.018,985.698,0,993.604,0C1001.509,0,1009.416,3.018,1015.451,9.049C1027.515,21.113,1027.515,40.676,1015.451,52.745C1015.451,52.745,556.193,512.001,556.193,512.001C556.193,512.001,1015.451,971.256,1015.451,971.256C1027.515,983.323,1027.515,1002.884,1015.451,1014.95C1003.385,1027.017,983.824,1027.017,971.755,1014.95C971.755,1014.95,512.499,555.694,512.499,555.694C512.499,555.694,53.244,1014.945,53.244,1014.945C41.177,1027.012,21.616,1027.012,9.55,1014.945C-2.517,1002.881,-2.517,983.318,9.55,971.251C9.55,971.251,468.806,511.998,468.806,511.998C468.806,511.998,9.552,52.745,9.552,52.745C-2.514,40.678,-2.514,21.115,9.552,9.051C9.552,9.051,9.552,9.051,9.552,9.051" class="icon-close"/><glyph unicode="&#x0049;" d="M439.236,973.935C439.236,1001.638,416.875,1024,389.171,1024C389.171,1024,52.065,1024,52.065,1024C24.362,1024,2,1001.638,2,973.935C2,973.935,2,636.829,2,636.829C2,609.125,24.362,586.764,52.065,586.764C52.065,586.764,389.171,586.764,389.171,586.764C416.875,586.764,439.236,609.125,439.236,636.829C439.236,636.829,439.236,973.935,439.236,973.935C439.236,973.935,439.236,973.935,439.236,973.935M1022.829,973.935C1022.829,1001.638,1000.467,1024,972.764,1024C972.764,1024,635.658,1024,635.658,1024C607.954,1024,585.593,1001.638,585.593,973.935C585.593,973.935,585.593,636.829,585.593,636.829C585.593,609.125,607.954,586.764,635.658,586.764C635.658,586.764,972.931,586.764,972.931,586.764C1000.637,586.764,1022.996,609.125,1022.996,636.829C1022.996,636.829,1022.996,973.935,1022.996,973.935C1022.996,973.935,1022.829,973.935,1022.829,973.935C1022.829,973.935,1022.829,973.935,1022.829,973.935C1022.829,973.935,1022.829,973.935,1022.829,973.935M389.171,437.403C389.171,437.403,52.065,437.403,52.065,437.403C24.362,437.403,2,415.04,2,387.338C2,387.338,2,50.065,2,50.065C2,22.359,24.362,0,52.065,0C52.065,0,389.171,0,389.171,0C416.875,0,439.236,22.359,439.236,50.065C439.236,50.065,439.236,387.338,439.236,387.338C439.236,414.874,416.872,437.403,389.171,437.403C389.171,437.403,389.171,437.403,389.171,437.403M972.764,437.403C972.764,437.403,635.658,437.403,635.658,437.403C607.954,437.403,585.593,415.04,585.593,387.338C585.593,387.338,585.593,50.065,585.593,50.065C585.593,22.359,607.954,0,635.658,0C635.658,0,972.931,0,972.931,0C1000.637,0,1022.996,22.359,1022.996,50.065C1022.996,50.065,1022.996,387.338,1022.996,387.338C1022.829,414.874,1000.467,437.403,972.764,437.403C972.764,437.403,972.764,437.403,972.764,437.403" class="icon-dashboards"/><glyph unicode="&#x004a;" d="M644.383,1012.28C644.383,1012.28,17.862,385.759,17.862,385.759C10.442,378.339,6.396,368.223,5.722,358.107C5.722,358.107,1,39.115,1,39.115C1,28.325,5.046,18.209,13.139,10.79C20.559,3.37,31.348,0,41.464,0C41.464,0,42.138,0,42.138,0C42.138,0,351.69,2.697,351.69,2.697C362.48,2.697,372.596,6.07,380.015,13.487C380.015,13.487,1011.933,645.404,1011.933,645.404C1027.445,660.916,1027.445,686.542,1011.933,702.728C1011.933,702.728,701.709,1012.956,701.709,1012.956C685.524,1027.792,659.895,1027.792,644.383,1012.28C644.383,1012.28,644.383,1012.28,644.383,1012.28M334.157,82.276C334.157,82.276,82.605,78.903,82.605,78.903C82.605,78.903,86.651,340.572,86.651,340.572C86.651,340.572,504.784,758.704,504.784,758.704C504.784,758.704,757.686,505.802,757.686,505.802C757.686,505.802,334.157,82.276,334.157,82.276C334.157,82.276,334.157,82.276,334.157,82.276M814.333,562.452C814.333,562.452,562.107,815.354,562.107,815.354C562.107,815.354,673.384,926.631,673.384,926.631C673.384,926.631,925.613,673.729,925.613,673.729C925.613,673.729,814.333,562.452,814.333,562.452C814.333,562.452,814.333,562.452,814.333,562.452" class="icon-edit_thick"/><glyph unicode="&#x004b;" d="M774.862,712.309C793.2,725.341,810.793,739.846,826.916,755.966C860.712,789.762,883.319,831.345,890.568,873.054C898.521,918.773,886.853,961.222,858.567,989.512C836.006,1012.073,805.439,1024,770.172,1024C719.954,1024,667.047,999.895,625.019,957.867C557.763,890.606,518.555,797.762,497.457,731.505C481.835,798.083,450.706,887.974,390.188,948.493C357.714,980.964,316.21,997.637,277.021,997.637C244.993,997.637,214.512,986.503,191.766,963.755C141.191,913.178,148.024,824.344,207.03,765.337C228.068,744.3,252.66,726.826,278.585,712.307C278.585,712.307,59,712.307,59,712.307C59,712.307,59,453.286,59,453.286C59,453.286,123.755,453.286,123.755,453.286C123.755,453.286,123.755,0,123.755,0C123.755,0,900.817,0,900.817,0C900.817,0,900.817,453.29,900.817,453.29C900.817,453.29,965.573,453.29,965.573,453.29C965.573,453.29,965.573,712.311,965.573,712.311C965.573,712.311,774.862,712.311,774.862,712.311C774.862,712.311,774.862,712.309,774.862,712.309M676.526,906.354C704.579,934.405,739.585,951.15,770.168,951.15C780.994,951.15,796.179,948.87,807.048,937.999C833.387,911.664,818.596,850.673,775.401,807.479C730.932,763.014,671.123,732.436,619.144,712.309C619.144,712.309,567.875,712.309,567.875,712.309C586.664,770.536,620.549,850.375,676.526,906.354C676.526,906.354,676.526,906.354,676.526,906.354M230.937,873.296C230.227,882.524,230.887,899.854,243.277,912.245C253.642,922.61,267.346,924.787,277.019,924.787C277.019,924.787,277.019,924.787,277.019,924.787C298.527,924.787,320.999,914.653,338.67,896.983C372.941,862.711,401.164,808.175,420.289,739.267C420.805,737.406,421.309,735.554,421.803,733.717C419.966,734.208,418.114,734.712,416.252,735.23C347.345,754.357,292.811,782.581,258.539,816.852C242.526,832.865,232.467,853.439,230.937,873.296C230.937,873.296,230.937,873.296,230.937,873.296M447.531,64.759C447.531,64.759,188.51,64.759,188.51,64.759C188.51,64.759,188.51,485.668,188.51,485.668C188.51,485.668,447.531,485.668,447.531,485.668C447.531,485.668,447.531,64.759,447.531,64.759C447.531,64.759,447.531,64.759,447.531,64.759M447.531,518.043C447.531,518.043,123.755,518.043,123.755,518.043C123.755,518.043,123.755,647.554,123.755,647.554C123.755,647.554,447.531,647.554,447.531,647.554C447.531,647.554,447.531,518.043,447.531,518.043C447.531,518.043,447.531,518.043,447.531,518.043M836.062,64.759C836.062,64.759,577.041,64.759,577.041,64.759C577.041,64.759,577.041,485.668,577.041,485.668C577.041,485.668,836.062,485.668,836.062,485.668C836.062,485.668,836.062,64.759,836.062,64.759C836.062,64.759,836.062,64.759,836.062,64.759M900.817,518.043C900.817,518.043,577.041,518.043,577.041,518.043C577.041,518.043,577.041,647.554,577.041,647.554C577.041,647.554,900.817,647.554,900.817,647.554C900.817,647.554,900.817,518.043,900.817,518.043C900.817,518.043,900.817,518.043,900.817,518.043" class="icon-gift"/><glyph unicode="&#x004c;" d="M511.999,1024.46C229.696,1024.46,0,794.8,0,512.501C0,230.181,229.682,0.5,511.999,0.5C794.318,0.5,1024,230.181,1024,512.501C1023.995,794.8,794.298,1024.46,511.999,1024.46C511.999,1024.46,511.999,1024.46,511.999,1024.46M511.999,46.509C255.067,46.509,45.968,255.529,45.968,512.502C45.968,769.455,255.067,978.513,511.999,978.513C768.968,978.513,978.067,769.47,978.067,512.502C978.067,255.535,768.968,46.509,511.999,46.509C511.999,46.509,511.999,46.509,511.999,46.509M508.681,679.533C489.689,679.533,474.239,664.117,474.239,645.075C474.239,645.075,474.239,255.954,474.239,255.954C474.239,236.892,489.688,221.44,508.681,221.44C527.744,221.44,543.193,236.892,543.193,255.954C543.193,255.954,543.193,645.075,543.193,645.075C543.193,664.117,527.722,679.533,508.681,679.533C508.681,679.533,508.681,679.533,508.681,679.533M468.958,775.085C468.958,742.842,503.861,722.69,531.783,738.811C544.743,746.294,552.726,760.121,552.726,775.085C552.726,807.327,517.823,827.479,489.901,811.358C476.941,803.875,468.958,790.048,468.958,775.085" class="icon-info"/><glyph unicode="&#x004d;" d="M992.444,0C992.444,0,0.508,0,0.508,0C0.508,0,0.508,992,0.508,992C0.508,1009.696,14.844,1024,32.508,1024C50.172,1024,64.508,1009.696,64.508,992C64.508,992,64.508,64,64.508,64C64.508,64,992.476,64,992.476,64C1010.14,64,1024.476,49.696,1024.476,32C1024.476,14.304,1010.14,0,992.444,0C992.444,0,992.444,0,992.444,0M272.444,151.008C240.156,151.008,209.788,163.616,186.94,186.432C164.124,209.248,151.548,239.584,151.548,271.904C151.548,338.592,205.788,392.832,272.444,392.832C323.036,392.832,368.7,360.896,386.076,313.376C390.908,300.128,393.372,286.144,393.372,271.904C393.372,205.248,339.1,151.008,272.444,151.008C272.444,151.008,272.444,151.008,272.444,151.008M272.444,328.832C241.084,328.832,215.548,303.296,215.548,271.904C215.548,256.704,221.468,242.432,232.188,231.68C242.972,220.928,257.276,215.008,272.444,215.008C303.836,215.008,329.372,240.544,329.372,271.904C329.372,278.656,328.22,285.216,325.948,291.424C317.756,313.824,296.252,328.832,272.444,328.832C272.444,328.832,272.444,328.832,272.444,328.832M355.996,270.4C342.94,270.4,330.652,278.464,325.948,291.424C319.9,308.032,328.444,326.4,345.052,332.448C345.052,332.448,506.876,391.488,506.876,391.488C523.484,397.504,541.852,388.96,547.9,372.384C553.948,355.776,545.404,337.408,528.796,331.36C528.796,331.36,366.972,272.32,366.972,272.32C363.356,271.04,359.644,270.4,355.996,270.4C355.996,270.4,355.996,270.4,355.996,270.4M601.372,271.008C550.748,271.008,505.116,302.944,487.772,350.464C482.94,363.776,480.476,377.728,480.476,391.936C480.476,458.592,534.716,512.832,601.372,512.832C624.7,512.832,647.356,506.144,666.908,493.504C701.564,471.136,722.268,433.152,722.268,391.904C722.268,325.248,668.028,271.008,601.372,271.008C601.372,271.008,601.372,271.008,601.372,271.008M601.372,448.832C570.012,448.832,544.476,423.296,544.476,391.936C544.476,385.216,545.628,378.624,547.9,372.384C556.028,350.048,577.532,335.008,601.372,335.008C632.764,335.008,658.3,360.544,658.3,391.936C658.3,411.328,648.54,429.216,632.22,439.776C623.004,445.728,612.348,448.832,601.372,448.832C601.372,448.832,601.372,448.832,601.372,448.832M649.5,434.656C643.548,434.656,637.532,436.32,632.156,439.776C617.308,449.376,613.052,469.152,622.652,484.032C622.652,484.032,797.436,754.656,797.436,754.656C807.004,769.472,826.876,773.728,841.66,764.16C856.508,754.56,860.764,734.784,851.164,719.904C851.164,719.904,676.38,449.28,676.38,449.28C670.3,439.808,660.028,434.656,649.5,434.656C649.5,434.656,649.5,434.656,649.5,434.656M872.508,691.104C849.18,691.104,826.524,697.792,806.972,710.432C772.316,732.8,751.612,770.784,751.612,812.032C751.612,878.72,805.852,932.96,872.54,932.96C939.228,932.96,993.436,878.72,993.436,812.032C993.436,745.344,939.196,691.104,872.508,691.104C872.508,691.104,872.508,691.104,872.508,691.104M872.508,868.928C841.116,868.928,815.58,843.392,815.58,812C815.58,792.608,825.34,774.72,841.66,764.16C850.844,758.208,861.5,755.104,872.476,755.104C903.836,755.104,929.372,780.64,929.372,812C929.436,843.392,903.9,868.928,872.508,868.928C872.508,868.928,872.508,868.928,872.508,868.928M32.508,0C24.316,0,16.124,3.136,9.884,9.376C-2.628,21.888,-2.628,42.112,9.884,54.624C9.884,54.624,186.94,231.68,186.94,231.68C199.452,244.192,219.676,244.192,232.188,231.68C244.7,219.168,244.7,198.944,232.188,186.432C232.188,186.432,55.132,9.376,55.132,9.376C48.86,3.136,40.7,0,32.508,0C32.508,0,32.508,0,32.508,0" class="icon-line"/><glyph unicode="&#x004e;" d="M908.471,657.715C908.471,657.715,883.882,657.715,883.882,657.715C883.882,657.715,883.882,776.372,883.882,776.372C883.882,777.112,883.764,777.857,883.667,778.606C883.628,783.318,882.126,787.944,878.901,791.61C878.901,791.61,681.473,1017.133,681.473,1017.133C681.411,1017.191,681.353,1017.211,681.314,1017.269C680.137,1018.59,678.766,1019.682,677.31,1020.621C676.882,1020.915,676.449,1021.156,676,1021.408C674.745,1022.091,673.408,1022.661,672.039,1023.074C671.666,1023.176,671.331,1023.328,670.962,1023.425C669.468,1023.78,667.921,1024,666.352,1024C666.352,1024,181.137,1024,181.137,1024C158.981,1024,140.981,1005.976,140.981,983.842C140.981,983.842,140.981,657.731,140.981,657.731C140.981,657.731,116.396,657.731,116.396,657.731C84.7,657.731,59,632.04,59,600.334C59,600.334,59,301.866,59,301.866C59,270.176,84.7,244.474,116.396,244.474C116.396,244.474,140.981,244.474,140.981,244.474C140.981,244.474,140.981,40.156,140.981,40.156C140.981,18.017,158.981,0,181.137,0C181.137,0,843.724,0,843.724,0C865.861,0,883.88,18.017,883.88,40.156C883.88,40.156,883.88,244.47,883.88,244.47C883.88,244.47,908.469,244.47,908.469,244.47C940.155,244.47,965.859,270.176,965.859,301.862C965.859,301.862,965.859,600.323,965.859,600.323C965.861,632.039,940.157,657.715,908.471,657.715C908.471,657.715,908.471,657.715,908.471,657.715M181.137,983.842C181.137,983.842,646.277,983.842,646.277,983.842C646.277,983.842,646.277,778.387,646.277,778.387C646.277,767.295,655.272,758.31,666.354,758.31C666.354,758.31,843.728,758.31,843.728,758.31C843.728,758.31,843.728,657.718,843.728,657.718C843.728,657.718,181.137,657.718,181.137,657.718C181.137,657.718,181.137,983.842,181.137,983.842C181.137,983.842,181.137,983.842,181.137,983.842M843.726,51.04C843.726,51.04,181.137,51.04,181.137,51.04C181.137,51.04,181.137,244.47,181.137,244.47C181.137,244.47,843.724,244.47,843.724,244.47C843.724,244.47,843.726,51.04,843.726,51.04C843.726,51.04,843.726,51.04,843.726,51.04C843.726,51.04,843.726,51.04,843.726,51.04M156.382,553.165C156.382,553.165,230.502,553.165,230.502,553.165C247.217,553.165,259.958,551.886,268.726,549.329C280.509,545.857,290.6,539.692,299.004,530.834C307.407,521.974,313.8,511.127,318.185,498.294C322.57,485.462,324.761,469.638,324.761,450.823C324.761,434.291,322.706,420.043,318.596,408.077C313.572,393.463,306.402,381.635,297.086,372.592C290.051,365.744,280.552,360.401,268.588,356.564C259.637,353.731,247.673,352.317,232.694,352.317C232.694,352.317,156.383,352.317,156.383,352.317C156.383,352.317,156.383,553.165,156.383,553.165C156.383,553.165,156.382,553.165,156.382,553.165M196.935,519.189C196.935,519.189,196.935,386.159,196.935,386.159C196.935,386.159,227.213,386.159,227.213,386.159C238.536,386.159,246.713,386.797,251.737,388.077C258.313,389.72,263.77,392.505,268.11,396.434C272.447,400.362,275.988,406.824,278.728,415.82C281.467,424.815,282.838,437.078,282.838,452.605C282.838,468.132,281.469,480.05,278.728,488.362C275.988,496.671,272.152,503.16,267.219,507.817C262.287,512.475,256.03,515.628,248.45,517.271C242.785,518.551,231.688,519.189,215.157,519.189C215.157,519.189,196.935,519.189,196.935,519.189C196.935,519.189,196.935,519.189,196.935,519.189M540.267,352.317C540.267,352.317,496.152,352.317,496.152,352.317C496.152,352.317,478.617,397.94,478.617,397.94C478.617,397.94,398.332,397.94,398.332,397.94C398.332,397.94,381.755,352.317,381.755,352.317C381.755,352.317,338.736,352.317,338.736,352.317C338.736,352.317,416.965,553.165,416.965,553.165C416.965,553.165,459.848,553.165,459.848,553.165C459.848,553.165,540.267,352.317,540.267,352.317C540.267,352.317,540.267,352.317,540.267,352.317M465.598,431.779C465.598,431.779,437.927,506.31,437.927,506.31C437.927,506.31,410.8,431.779,410.8,431.779C410.8,431.779,465.598,431.779,465.598,431.779C465.598,431.779,465.598,431.779,465.598,431.779M586.164,352.317C586.164,352.317,586.164,519.189,586.164,519.189C586.164,519.189,526.566,519.189,526.566,519.189C526.566,519.189,526.566,553.165,526.566,553.165C526.566,553.165,686.177,553.165,686.177,553.165C686.177,553.165,686.177,519.189,686.177,519.189C686.177,519.189,626.718,519.189,626.718,519.189C626.718,519.189,626.718,352.317,626.718,352.317C626.718,352.317,586.164,352.317,586.164,352.317C586.164,352.317,586.164,352.317,586.164,352.317M872.64,352.317C872.64,352.317,828.525,352.317,828.525,352.317C828.525,352.317,810.988,397.94,810.988,397.94C810.988,397.94,730.703,397.94,730.703,397.94C730.703,397.94,714.126,352.317,714.126,352.317C714.126,352.317,671.107,352.317,671.107,352.317C671.107,352.317,749.336,553.165,749.336,553.165C749.336,553.165,792.219,553.165,792.219,553.165C792.219,553.165,872.64,352.317,872.64,352.317C872.64,352.317,872.64,352.317,872.64,352.317M797.971,431.779C797.971,431.779,770.299,506.31,770.299,506.31C770.299,506.31,743.171,431.779,743.171,431.779C743.171,431.779,797.971,431.779,797.971,431.779C797.971,431.779,797.971,431.779,797.971,431.779" class="icon-logFile"/><glyph unicode="&#x004f;" d="M313.136,767.481C332.495,779.926,338.027,805.508,325.581,824.87C313.136,844.229,287.554,849.761,268.192,837.315C136.129,753.654,58,609.836,58,454.266C58,203.969,261.969,0,512.266,0C762.562,0,966.531,203.969,966.531,454.266C966.531,604.304,892.548,744.664,768.092,829.709C749.423,842.845,723.148,838.006,710.703,818.647C697.567,799.979,702.406,773.704,721.765,761.258C823.404,692.116,884.249,577.338,884.249,454.266C884.249,249.603,717.616,82.971,512.954,82.971C308.291,82.971,141.659,249.603,141.659,454.266C140.971,582.18,205.273,699.03,313.136,767.481C313.136,767.481,313.136,767.481,313.136,767.481M553.751,415.548C553.751,415.548,553.751,982.515,553.751,982.515C553.751,1005.332,535.083,1024,512.266,1024C489.449,1024,470.78,1005.332,470.78,982.515C470.78,982.515,470.78,415.548,470.78,415.548C470.78,392.731,489.449,374.062,512.266,374.062C535.083,374.062,553.751,392.731,553.751,415.548C553.751,415.548,553.751,415.548,553.751,415.548" class="icon-power115"/><glyph unicode="&#x0050;" d="M512,320C670.816,320,800,477.952,800,672C800,866.048,670.784,1024,512,1024C433.696,1024,360.512,986.432,305.984,918.24C253.088,852.16,224,764.672,224,671.968C224,477.952,353.184,320,512,320C512,320,512,320,512,320M512,959.968C635.488,959.968,736,830.784,736,671.968C736,513.184,635.488,383.968,512,383.968C388.512,383.968,288,513.184,287.968,671.968C287.968,830.784,388.48,959.968,512,959.968C512,959.968,512,959.968,512,959.968M736,384C718.304,384,704,369.696,704,352C704,334.304,718.304,320,736,320C859.488,320,960,219.488,960,96C960,78.368,945.632,64,928,64C928,64,96,64,96,64C78.368,64,64,78.368,64,96C64,219.488,164.512,320,288,320C305.696,320,320,334.304,320,352C320,369.696,305.696,384,288,384C129.184,384,0,254.816,0,96C0,43.072,43.072,0,96,0C96,0,928,0,928,0C980.928,0,1024,43.072,1024,96C1024,254.784,894.816,384,736,384C736,384,736,384,736,384" class="icon-profile"/><glyph unicode="&#x0051;" d="M1022.047,292.845C1015.273,313.694,992.881,325.091,972.03,318.33C972.03,318.33,920.412,301.559,920.412,301.559C952.032,366.954,968.593,438.865,968.593,512.297C968.593,779.34,751.343,996.593,484.297,996.593C217.254,996.593,0,779.34,0,512.297C0,245.254,217.254,28,484.297,28C506.219,28,523.993,45.774,523.993,67.696C523.993,89.615,506.219,107.393,484.297,107.393C261.031,107.393,79.393,289.028,79.393,512.297C79.393,735.562,261.031,917.201,484.297,917.201C707.565,917.201,889.201,735.562,889.201,512.297C889.201,450.777,875.32,390.549,848.796,335.829C848.796,335.829,831.161,390.121,831.161,390.121C824.387,410.966,801.989,422.373,781.144,415.606C760.292,408.829,748.878,386.434,755.652,365.585C755.652,365.585,802.462,221.509,802.462,221.509C807.909,204.732,823.47,194.065,840.206,194.065C844.267,194.065,848.405,194.693,852.48,196.014C852.48,196.014,996.559,242.818,996.559,242.818C1017.407,249.595,1028.821,271.987,1022.047,292.845C1022.047,292.845,1022.047,292.845,1022.047,292.845" class="icon-refresh"/><glyph unicode="&#x0052;" d="M1003.653,120.833C1003.653,120.833,787.258,337.263,787.258,337.263C839.853,410.421,868.769,497.843,868.769,589.865C868.769,705.779,823.643,814.79,741.566,896.796C659.665,978.767,550.583,1024,434.599,1024C318.651,1024,209.604,978.873,127.633,896.796C45.662,814.861,0.5,705.814,0.5,589.865C0.5,473.917,45.627,364.905,127.633,282.864C209.604,200.893,318.615,155.66,434.599,155.66C526.587,155.66,613.937,184.435,687.166,237.171C687.166,237.171,903.561,20.74,903.561,20.74C917.435,6.902,935.486,0,953.607,0C971.764,0,989.85,6.902,1003.653,20.74C1031.296,48.418,1031.296,93.191,1003.653,120.833C1003.653,120.833,1003.653,120.833,1003.653,120.833M227.761,382.991C172.476,438.276,142.073,511.788,142.073,589.901C142.073,668.014,172.476,741.455,227.761,796.739C283.01,852.024,356.451,882.462,434.599,882.462C512.748,882.462,586.224,852.024,641.473,796.739C696.758,741.455,727.196,667.978,727.196,589.865C727.196,511.752,696.793,438.276,641.473,382.956C586.189,327.672,512.783,297.304,434.599,297.304C356.415,297.304,282.939,327.742,227.761,382.991C227.761,382.991,227.761,382.991,227.761,382.991" class="icon-search"/><glyph unicode="&#x0053;" d="M833.123,373.183C773.84,373.183,721.548,344.939,687.383,301.687C687.383,301.687,370.503,463.74,370.503,463.74C374.651,479.212,377.633,495.199,377.633,512.024C377.633,530.34,374.092,547.584,369.15,564.363C369.15,564.363,684.633,725.669,684.633,725.669C718.609,680.459,772.254,650.91,833.169,650.91C936.357,650.91,1019.829,734.382,1019.829,837.478C1019.831,940.48,936.357,1024,833.171,1024C730.216,1024,646.651,940.48,646.651,837.48C646.651,820.607,649.635,804.575,653.829,789.056C653.829,789.056,336.993,627.003,336.993,627.003C302.784,670.3,250.397,698.637,191.02,698.637C87.925,698.637,4.5,615.072,4.5,512.024C4.5,408.976,87.927,325.456,191.02,325.456C252.028,325.456,305.627,355.098,339.742,400.353C339.742,400.353,655.084,239.048,655.084,239.048C650.143,222.316,646.556,204.931,646.556,186.568C646.556,83.52,730.121,0,833.076,0C936.264,0,1019.736,83.52,1019.736,186.568C1019.784,289.708,936.312,373.183,833.123,373.183C833.123,373.183,833.123,373.183,833.123,373.183" class="icon-share"/><glyph unicode="&#x0054;" d="M609.827,347.927C609.5,351.772,608.401,355.618,606.485,359.276C606.485,359.276,365.314,814.359,365.314,814.359C358.196,827.731,342.136,834.042,327.572,829.168C312.985,824.224,304.277,809.602,307.047,794.687C307.047,794.687,401.035,290.057,401.035,290.057C401.771,286.047,403.326,282.459,405.441,279.186C406.353,274.873,407.463,270.583,408.948,266.282C424.084,223.105,465.497,194,511.959,194C523.963,194,535.897,195.94,547.305,199.809C574.82,209.067,597.017,228.306,609.804,253.997C622.603,279.689,624.426,308.7,614.994,335.747C613.556,339.99,611.779,344.023,609.827,347.927C609.827,347.927,609.827,347.927,609.827,347.927M511.994,796.101C494.8,796.101,480.879,782.426,480.879,765.559C480.879,748.692,494.8,735.005,511.994,735.005C760.002,735.005,961.723,536.755,961.723,293.107C961.723,276.252,975.691,262.565,992.862,262.565C1010.079,262.565,1024,276.252,1024,293.107C1023.977,570.5,794.308,796.101,511.994,796.101C511.994,796.101,511.994,796.101,511.994,796.101M190.243,684.429C69.348,588.36,0,445.748,0,293.119C0,276.252,13.921,262.553,31.127,262.553C48.356,262.553,62.277,276.252,62.277,293.119C62.277,427.187,123.186,552.477,229.4,636.868C242.795,647.481,244.829,666.744,234.04,679.87C223.252,692.985,203.65,695.042,190.243,684.429C190.243,684.429,190.243,684.429,190.243,684.429" class="icon-threshold"/><glyph unicode="&#x0055;" d="M512.499,0C795.004,0,1024.498,229.494,1024.498,511.999C1024.498,794.504,795.006,1024,512.499,1024C229.992,1024,0.5,794.506,0.5,512.001C0.5,229.496,229.994,0,512.499,0C512.499,0,512.499,0,512.499,0M512.499,943.476C750.715,943.476,943.973,749.548,943.973,512.001C943.973,274.455,750.045,80.527,512.499,80.527C274.952,80.527,81.024,273.782,81.024,512.001C81.024,750.22,274.282,943.476,512.499,943.476C512.499,943.476,512.499,943.476,512.499,943.476M447.409,426.778C447.409,426.778,619.866,292.57,619.866,292.57C627.248,287.201,635.971,283.848,644.693,283.848C656.772,283.848,668.851,289.217,676.233,299.282C689.654,316.73,686.969,342.228,668.851,355.649C668.851,355.649,512.499,477.778,512.499,477.778C512.499,477.778,512.499,753.574,512.499,753.574C512.499,775.718,494.381,793.836,472.237,793.836C450.093,793.836,431.975,775.718,431.975,753.574C431.975,753.574,431.975,458.318,431.975,458.318C431.975,445.569,438.014,434.16,447.409,426.778C447.409,426.778,447.409,426.778,447.409,426.778" class="icon-time_filter"/><glyph unicode="&#x0056;" d="M672,127.999C689.664,127.999,704,142.336,704,160C704,160,704,543.999,704,543.999C704,561.663,689.664,576,672,576C654.336,576,640.001,561.664,640.001,543.999C640.001,543.999,640.001,160,640.001,160C640.001,142.336,654.335,127.999,672,127.999C672,127.999,672,127.999,672,127.999M863.999,896C863.999,896,672,896,672,896C672,896,672,960,672,960C672,995.36,643.359,1024,607.999,1024C607.999,1024,415.999,1024,415.999,1024C380.639,1024,351.999,995.36,351.999,960C351.999,960,351.999,896,351.999,896C351.999,896,160,896,160,896C124.64,896,96,867.36,96,831.999C96,831.999,96,767.999,96,767.999C96,732.672,124.64,703.999,160,703.999C160,703.999,160,127.999,160,127.999C160,57.312,217.312,0,288.001,0C288.001,0,736.002,0,736.002,0C806.689,0,864.001,57.312,864.001,127.999C864.001,127.999,864.001,703.999,864.001,703.999C899.361,703.999,928.001,732.672,928.001,767.999C928.001,767.999,928.001,832.001,928.001,832.001C927.999,867.36,899.359,896,863.999,896C863.999,896,863.999,896,863.999,896M415.999,928C415.999,945.664,430.335,960.001,447.999,960.001C447.999,960.001,575.999,960.001,575.999,960.001C593.663,960.001,607.999,945.665,607.999,928C607.999,928,607.999,896,607.999,896C576.99,896,415.999,896,415.999,896C415.999,896,415.999,928,415.999,928C415.999,928,415.999,928,415.999,928M799.999,127.999C799.999,92.672,771.36,64,736,64C736,64,287.999,64,287.999,64C252.639,64,223.999,92.672,223.999,127.999C223.999,127.999,223.999,703.999,223.999,703.999C223.999,703.999,799.999,703.999,799.999,703.999C799.999,703.999,799.999,127.999,799.999,127.999C799.999,127.999,799.999,127.999,799.999,127.999M832,767.999C832,767.999,191.998,767.999,191.998,767.999C174.335,767.999,159.999,782.335,159.999,800C159.999,817.665,174.335,832.001,191.998,832.001C191.998,832.001,832,832.001,832,832.001C849.664,832.001,863.999,817.665,863.999,800C863.999,782.335,849.664,767.999,832,767.999C832,767.999,832,767.999,832,767.999M351.999,127.999C369.663,127.999,384,142.336,384,160C384,160,384,543.999,384,543.999C384,561.663,369.664,576,351.999,576C334.334,576,319.999,561.664,319.999,543.999C319.999,543.999,319.999,160,319.999,160C319.999,142.336,334.336,127.999,351.999,127.999C351.999,127.999,351.999,127.999,351.999,127.999M511.999,127.999C529.663,127.999,543.998,142.336,543.998,160C543.998,160,543.998,543.999,543.998,543.999C543.998,561.663,529.663,576,511.999,576C494.335,576,479.998,561.664,479.998,543.999C479.998,543.999,479.998,160,479.998,160C480,142.336,494.335,127.999,511.999,127.999C511.999,127.999,511.999,127.999,511.999,127.999" class="icon-trash"/><glyph unicode="&#x0057;" d="M457.647,1024C457.647,1024,457.647,0,457.647,0C457.647,0,566.327,0,566.327,0C566.327,0,566.327,1024,566.327,1024C566.327,1024,457.647,1024,457.647,1024M0,566.327C0,566.327,0,457.647,0,457.647C0,457.647,1024,457.647,1024,457.647C1024,457.647,1024,566.327,1024,566.327C1024,566.327,0,566.327,0,566.327" class="icon-Add"/><glyph unicode="&#x0058;" d="M1015.219,181.575C1009.198,175.721,1001.505,172.878,993.811,172.878C986.118,172.878,978.424,175.721,972.57,181.575C972.57,181.575,826.893,327.252,826.893,327.252C797.959,306.847,763.505,295.808,727.379,295.808C681.217,295.808,637.565,313.872,604.783,346.653C572.169,379.267,554.106,422.92,554.106,469.082C554.106,515.41,572.169,558.896,604.783,591.678C637.565,624.292,681.05,642.355,727.379,642.355C773.708,642.355,817.361,624.291,849.975,591.678C882.756,558.896,900.82,515.41,900.82,469.082C900.82,432.955,889.781,398.669,869.375,369.734C869.375,369.734,1015.219,224.058,1015.219,224.058C1026.927,212.349,1026.927,193.284,1015.219,181.575C1015.219,181.575,1015.219,181.575,1015.219,181.575M814.684,556.22C791.269,579.467,760.327,592.347,727.379,592.347C694.598,592.347,663.49,579.468,640.24,556.22C616.993,532.972,604.114,502.03,604.114,469.081C604.114,436.299,616.992,405.358,640.24,381.943C663.489,358.695,694.598,345.983,727.379,345.983C760.327,345.983,791.269,358.695,814.684,381.943C837.932,405.358,850.643,436.299,850.643,469.081C850.643,502.03,837.932,532.972,814.684,556.22C814.684,556.22,814.684,556.22,814.684,556.22M152.033,468.412C152.033,468.412,152.033,666.94,152.033,666.94C152.033,677.812,160.897,686.676,171.769,686.676C182.807,686.676,191.671,677.812,191.671,666.94C191.671,666.94,191.671,468.412,191.671,468.412C191.671,457.54,182.807,448.676,171.769,448.676C160.897,448.676,152.033,457.541,152.033,468.412C152.033,468.412,152.033,468.412,152.033,468.412M226.292,468.412C226.292,468.412,226.292,615.092,226.292,615.092C226.292,625.963,235.156,634.828,246.028,634.828C256.9,634.828,265.764,625.964,265.764,615.092C265.764,615.092,265.764,468.412,265.764,468.412C265.764,457.54,256.9,448.676,246.028,448.676C235.156,448.676,226.292,457.541,226.292,468.412C226.292,468.412,226.292,468.412,226.292,468.412M300.385,468.412C300.385,468.412,300.385,533.474,300.385,533.474C300.385,544.345,309.249,553.209,320.288,553.209C331.16,553.209,340.023,544.345,340.023,533.474C340.023,533.474,340.023,468.412,340.023,468.412C340.023,457.54,331.16,448.676,320.288,448.676C309.25,448.676,300.385,457.541,300.385,468.412C300.385,468.412,300.385,468.412,300.385,468.412M374.645,468.412C374.645,468.412,374.645,615.092,374.645,615.092C374.645,625.963,383.509,634.828,394.38,634.828C405.252,634.828,414.116,625.964,414.116,615.092C414.116,615.092,414.116,468.412,414.116,468.412C414.116,457.54,405.252,448.676,394.38,448.676C383.509,448.676,374.645,457.541,374.645,468.412C374.645,468.412,374.645,468.412,374.645,468.412M448.738,468.412C448.738,468.412,448.738,533.474,448.738,533.474C448.738,544.345,457.602,553.209,468.64,553.209C479.513,553.209,488.377,544.345,488.377,533.474C488.377,533.474,488.377,468.412,488.377,468.412C488.377,457.54,479.513,448.676,468.64,448.676C457.602,448.676,448.738,457.541,448.738,468.412C448.738,468.412,448.738,468.412,448.738,468.412M791.269,672.795C791.269,672.795,791.269,792.547,791.269,792.547C791.269,792.547,71.752,792.547,71.752,792.547C71.752,792.547,71.752,352.507,71.752,352.507C71.752,352.507,548.755,352.507,548.755,352.507C556.783,340.298,565.981,328.757,576.519,318.22C591.571,303.168,608.631,290.624,627.029,280.755C627.029,280.755,581.201,280.755,581.201,280.755C581.201,280.755,581.201,239.779,581.201,239.779C581.201,239.779,633.717,181.241,633.717,181.241C636.226,179.066,637.564,175.889,637.564,172.377C637.564,165.52,632.044,160,625.355,160C625.187,160,625.187,160,625.187,160C625.187,160,237.833,160,237.833,160C232.815,160,228.467,162.843,226.46,167.36C224.453,171.708,225.289,177.06,228.635,180.572C228.635,180.572,281.82,239.779,281.82,239.779C281.82,239.779,281.82,280.755,281.82,280.755C281.82,280.755,12.377,280.755,12.377,280.755C5.52,280.755,0,286.275,0,293.132C0,293.132,0,851.753,0,851.753C0,858.611,5.52,864.131,12.377,864.131C12.377,864.131,850.643,864.131,850.643,864.131C857.501,864.131,863.021,858.611,863.021,851.753C863.021,851.753,863.021,633.825,863.021,633.825C841.611,651.554,817.361,664.599,791.269,672.795C791.269,672.795,791.269,672.795,791.269,672.795" class="icon-dashboard-tile-icon"/></font>
</defs>
</svg>
